<svg id="visual" viewBox="0 0 900 600" width="900" height="600" xmlns="http://www.w3.org/2000/svg" xmlns:xlink="http://www.w3.org/1999/xlink" version="1.1"><rect x="0" y="0" width="900" height="600" fill="#FFFFFF"></rect><path d="M0 401L21.5 399.5C43 398 86 395 128.8 399.2C171.7 403.3 214.3 414.7 257.2 433.2C300 451.7 343 477.3 385.8 475C428.7 472.7 471.3 442.3 514.2 423.3C557 404.3 600 396.7 642.8 410.7C685.7 424.7 728.3 460.3 771.2 460.2C814 460 857 424 878.5 406L900 388L900 601L878.5 601C857 601 814 601 771.2 601C728.3 601 685.7 601 642.8 601C600 601 557 601 514.2 601C471.3 601 428.7 601 385.8 601C343 601 300 601 257.2 601C214.3 601 171.7 601 128.8 601C86 601 43 601 21.5 601L0 601Z" fill="#ff6329" stroke-linecap="round" stroke-linejoin="miter"></path></svg>