<svg id="visual" viewBox="0 0 900 600" width="900" height="600" xmlns="http://www.w3.org/2000/svg" xmlns:xlink="http://www.w3.org/1999/xlink" version="1.1"><rect x="0" y="0" width="900" height="600" fill="#ff6329"></rect><path d="M0 388L21.5 394.3C43 400.7 86 413.3 128.8 421.3C171.7 429.3 214.3 432.7 257.2 427.3C300 422 343 408 385.8 409.7C428.7 411.3 471.3 428.7 514.2 431C557 433.3 600 420.7 642.8 411.3C685.7 402 728.3 396 771.2 399.3C814 402.7 857 415.3 878.5 421.7L900 428L900 601L878.5 601C857 601 814 601 771.2 601C728.3 601 685.7 601 642.8 601C600 601 557 601 514.2 601C471.3 601 428.7 601 385.8 601C343 601 300 601 257.2 601C214.3 601 171.7 601 128.8 601C86 601 43 601 21.5 601L0 601Z" fill="#1e2a38" stroke-linecap="round" stroke-linejoin="miter"></path></svg>